<svg xmlns="http://www.w3.org/2000/svg" width="103" height="67.621"><g data-name="Group 4" fill="#687484"><path data-name="Path 6" d="M21.145 53.063a37.507 37.507 0 0023.615-7.865 26.02 26.02 0 003.258-2.932c.159-.169.3-.462.57-.386s.249.394.262.63c.357 6.788-.993 13.121-5.723 18.228a21.9 21.9 0 01-24.6 5.124 7.019 7.019 0 00-3.455-.3 17.955 17.955 0 01-12.491-3.463 8.358 8.358 0 01-1.339-1.311c-2.746-3.278-.495-6.447 2.343-7.447a5.846 5.846 0 01.608-.153c1.691-.4 1.745-.422.945-2.025-1.6-3.206-1.071-6.135 1.017-8.894 2.867-3.788 6.809-6.121 11.043-8.008a42.433 42.433 0 0117.624-3.867 14.49 14.49 0 016.62 1.223c2.942 1.484 3.44 4.185 1.188 6.568-2.616 2.768-6.036 4.074-9.565 5.1a20.368 20.368 0 01-8.864.912 8.372 8.372 0 01-2.578-.812 2.316 2.316 0 01-.743-3.823 10.686 10.686 0 017.488-3.2c.275-.018.6-.011.724.3.148.363-.127.62-.375.782-.9.589-1.848 1.112-2.743 1.71-.527.352-1.418.671-1.213 1.375.216.743 1.145.458 1.767.457a20.129 20.129 0 0010.5-3.014 5.174 5.174 0 001.129-.92c1.106-1.2.776-2.479-.775-2.986a13.39 13.39 0 00-5.807-.264 39.709 39.709 0 00-18.279 6.614 12.558 12.558 0 00-3.646 3.691c-1.8 2.919-1.028 5.771 2.025 7.367a15.07 15.07 0 006.016 1.592c1.151.062 2.304-.003 3.454-.003zm-6.9 10.539a31.142 31.142 0 01-6.578-7.564 1.425 1.425 0 00-.584-.578 3.516 3.516 0 00-3.721.939 2.44 2.44 0 00.22 3.16 9.371 9.371 0 003.161 2.345 15.341 15.341 0 007.497 1.698z"/><path data-name="Path 7" d="M66.843 46.668c0 2.474-.009 4.948 0 7.422a3.181 3.181 0 01-1.91 3.1c-1.72.833-2.785.12-2.71-1.762q.3-7.515.581-15.03a7.6 7.6 0 01.024-.835c.154-1.02-.184-1.613-1.3-1.6a1.6 1.6 0 01-.509-.109c-.532-.176-.962-.461-.915-1.1a.961.961 0 011.062-.945c1.962.3 2.167-.945 2.346-2.386a7.833 7.833 0 01.9-2.664 4.29 4.29 0 015-2.045 2.537 2.537 0 011.608 1.253c.34.7.6.559 1 .053a3.842 3.842 0 013.121-1.424 3.494 3.494 0 013.524 4.48 2.652 2.652 0 01-2.6 1.866c-.792-.053-1-.525-.891-1.219.121-.756.276-1.507.389-2.263.041-.273.044-.621-.277-.717-.416-.125-.533.26-.629.541a10.221 10.221 0 00-.488 3.6c.013.512.35.615.779.63a8.155 8.155 0 012.079.13c.58.171 1.052.488 1.038 1.142-.014.675-.552.953-1.123 1.047a7.58 7.58 0 01-1.665.074c-.979-.057-1.355.324-1.348 1.337.035 4.876-.006 9.751.016 14.627a3.368 3.368 0 01-1.988 3.374c-1.6.756-2.7.074-2.641-1.681.181-5.324.405-10.647.59-15.971.017-.484.283-1.192-.345-1.4a3.619 3.619 0 00-2.355-.169c-.45.162-.352.64-.353 1.009-.009 2.544 0 5.088 0 7.631zm1.947-11.157v.02h.626c.293-.007.65.206.838-.179a.552.552 0 000-.488c-.238-.251-.516 0-.778.032-1.129.155-1.54-.276-1.347-1.428.081-.48.2-.955.255-1.438.052-.455.373-1.168-.2-1.283-.642-.129-.684.664-.774 1.14-.161.852-.229 1.721-.338 2.583-.1.754.2 1.124.992 1.046.237-.029.482-.005.726-.005z"/><path data-name="Path 8" d="M87.992 50.974a12.653 12.653 0 01-2.52 3.061 7.279 7.279 0 01-4.68 2.053 4.277 4.277 0 01-4.541-2.973 14.08 14.08 0 01-.7-7.191 15.775 15.775 0 012.651-7.4c1.677-2.378 4.033-2.475 5.933-.277a6.908 6.908 0 011.749 4.369 3.152 3.152 0 01-2.044 3.2 10.625 10.625 0 01-3.1.894 1.116 1.116 0 00-1.136 1.3 14.857 14.857 0 00.22 3.74c.461 1.588 1.572 2.011 2.936 1.06a10.265 10.265 0 002.738-2.988 22.934 22.934 0 003.213-6.875 11.555 11.555 0 012.509-4.995 3.337 3.337 0 014.835-.327 6.9 6.9 0 012.35 4.75 3.2 3.2 0 01-2.013 3.448 9.788 9.788 0 01-3.2.926 1 1 0 00-1.035 1.162c.031 1.079-.051 2.166.062 3.235.086.813.244 1.734 1.185 2.056a2.386 2.386 0 002.379-.734 12.174 12.174 0 002.639-3.217 28.37 28.37 0 002.23-4.369 3.454 3.454 0 01.274-.564 1.144 1.144 0 011.516-.554c.6.24.625.792.484 1.332a23.889 23.889 0 01-2.6 6.138 11.67 11.67 0 01-3.652 3.807 6.529 6.529 0 01-4.586 1.006 4.209 4.209 0 01-3.082-2.415c-.457-.774-.567-1.687-1.014-2.658zm6.975-9.373c-.03-.19-.09-.636-.172-1.078-.05-.272-.1-.6-.455-.606-.273-.007-.388.261-.489.484a17.629 17.629 0 00-.9 2.773c-.171.646.142.724.664.625.903-.169 1.339-.787 1.356-2.197zm-12.52-.095c-.036-.205-.105-.647-.194-1.085-.047-.234-.1-.509-.405-.524-.285-.014-.414.219-.516.44a9.771 9.771 0 00-.766 2.249c-.074.383-.408.944-.007 1.122a1.267 1.267 0 001.466-.5 2.579 2.579 0 00.426-1.701z"/><path data-name="Path 9" d="M21.673 29.927c-4.022-2.214-6.331-6.156-3.327-10.036a51.8 51.8 0 015.488-5.579c.4-.384.819-.754 1.234-1.126 2.926-2.621 2.718-5.679 1.049-8.486A15.1 15.1 0 0022.694.648c-.181-.147-.433-.252-.409-.648a6.463 6.463 0 011.932.908 17.249 17.249 0 016.205 5 6.461 6.461 0 01.171 7.709 22.455 22.455 0 01-5.1 5.334c-1.1.906-2.259 1.747-3.345 2.673-2.2 1.88-3.158 4.915-.638 7.837a.482.482 0 01.163.466z"/><path data-name="Path 10" d="M61.414 46.179a7.76 7.76 0 01-2.5 5.4 5.382 5.382 0 01-8.8-2.284 9.287 9.287 0 012.1-9.119c2.039-2.4 6.023-1.709 7.683.542a8.4 8.4 0 011.517 5.461zm-3.813-.142a11.7 11.7 0 00-.685-3.742c-.217-.577-.538-1.239-1.283-1.186-.707.051-1.03.672-1.2 1.292a10.98 10.98 0 00.075 6.255 2.735 2.735 0 00.5.9c.761.917 1.611.781 2.049-.326a9.666 9.666 0 00.544-3.194z"/><path data-name="Path 11" d="M24.728 29.964a6.1 6.1 0 012.524-8.605 14.487 14.487 0 005.252-4.018 9.568 9.568 0 002.172-6.576 1.411 1.411 0 01.124-.38 3.1 3.1 0 01.9 1.832c.863 2.658.832 5.209-1.081 7.469a7.17 7.17 0 01-2.2 1.724 47.939 47.939 0 00-4.68 2.732c-1.867 1.253-3.233 2.76-2.921 5.222a3.071 3.071 0 01-.09.6z"/><path data-name="Path 12" d="M18.97.2c2.536 2.076 4.494 4.534 4.536 7.938.036 2.95-1.723 5-4.066 6.681C22.862 9.807 22.469 4.972 18.97.2z"/></g></svg>